This is from the US PBS brodcast from 4-15-2012.						

												

												

This has been uploaded here before from the BBC broadcast and if you would prefer that 

version just do a search.                            						

												

												

	                                                                               

Enjoy and please share.										

												

											

TTLTTLTTLTTLTTLTTLTTLTTLTTLTTLTTLTTLTTLTTLTTLTTLTTLTTLTTL					

												

												

											

The_Mystery_Of_Edwin_Drood_(Masterpiece_Classic)_720p.x264_TTL.mkv
Format                           : Matroska
File size                        : 2.37 GiB
Duration                         : 1h 50mn
Overall bit rate                 : 3 076 Kbps
Writing application              : HandBrake 0.9.5
Writing library                  : libmkv 0.6.4.1

Video
ID                               : 1
Format                           : AVC
Format/Info                      : Advanced Video Codec
Format profile                   : High@L3.1
Format settings, CABAC           : Yes
Format settings, ReFrames        : 4 frames
Muxing mode                      : Container profile=Unknown@3.1
Codec ID                         : V_MPEG4/ISO/AVC
Duration                         : 1h 50mn
Bit rate                         : 2 791 Kbps
Nominal bit rate                 : 2 846 Kbps
Width                            : 1 280 pixels
Height                           : 720 pixels
Display aspect ratio             : 16:9
Frame rate mode                  : Variable
Frame rate                       : 29.970 fps
Resolution                       : 8 bits
Colorimetry                      : 4:2:0
Scan type                        : Progressive
Bits/(Pixel*Frame)               : 0.101
Stream size                      : 2.14 GiB (91%)
Writing library                  : x264 core 112

Audio
ID                               : 2
Format                           : AC-3
Format/Info                      : Audio Coding 3
Codec ID                         : A_AC3
Duration                         : 1h 50mn
Bit rate mode                    : Constant
Bit rate                         : 224 Kbps
Channel(s)                       : 2 channels
Channel positions                : L R
Sampling rate                    : 48.0 KHz
Stream size                      : 176 MiB (7%)